<svg width="156" height="93" viewBox="0 0 156 93" fill="none" xmlns="http://www.w3.org/2000/svg">
<g id="Logo LIFT">
<path d="M75.5087 20.3065L75.52 72.139C75.52 72.5466 75.5313 72.9542 75.5539 73.359C75.5542 73.5482 75.6965 73.7068 75.884 73.727C76.0613 73.7552 76.2406 73.7694 76.4201 73.7695H86.9822L87.0721 73.7691C87.6237 73.767 87.9079 73.7659 88.0543 73.6233C88.2099 73.4717 88.2098 73.1603 88.2097 72.5179L88.2096 71.6408C88.1927 65.8455 88.1927 60.0501 88.2096 54.2548C88.2104 54.0714 88.1984 53.8863 88.1864 53.7008C88.1521 53.1706 88.1177 52.6372 88.379 52.1318C88.8964 51.9384 89.4294 51.9651 89.9606 51.9916C90.145 52.0009 90.3291 52.0101 90.5122 52.0101H98.5008C99.1949 52.0072 99.2937 51.9251 99.4235 51.2939C99.4794 51.0286 99.5087 50.7583 99.511 50.4872V41.93C99.5024 41.615 99.4598 41.3018 99.384 40.9959C99.2627 40.4694 99.1639 40.3901 98.6673 40.3647H89.8576C89.7372 40.3647 89.6168 40.3669 89.4964 40.3691C89.2556 40.3735 89.0148 40.3779 88.774 40.3647C88.3536 40.3647 88.2435 40.2316 88.2096 39.7985C88.2068 39.7533 88.2068 39.7079 88.2096 39.6627V31.2414C88.2125 30.7036 88.3394 30.5847 88.8333 30.5592H99.4037C99.7649 30.5592 100.126 30.5535 100.485 30.5337C100.723 30.5337 100.918 30.3403 100.919 30.1006C100.939 29.7411 100.939 29.3788 100.939 29.0165V20.1876C100.939 20.074 100.939 19.9688 100.94 19.8712C100.943 19.2557 100.945 18.9466 100.792 18.7931C100.638 18.6393 100.329 18.6409 99.7101 18.6439C99.6162 18.6444 99.5152 18.6449 99.4066 18.6449H77.2018C77.033 18.6449 76.8808 18.6434 76.7438 18.642C76.1265 18.6357 75.8149 18.6326 75.6589 18.7868C75.5 18.9438 75.5023 19.264 75.5069 19.9102C75.5078 20.0306 75.5087 20.1624 75.5087 20.3065Z" fill="white"/>
<path d="M117.367 55.4437V40.2288C117.404 39.2333 117.372 38.2363 117.271 37.2453C117.24 36.8394 117.252 36.4313 117.308 36.0281C117.441 34.358 117.472 32.6822 117.438 31.0093C117.438 30.4743 117.314 30.3611 116.792 30.3582H110.699C110.466 30.3582 110.261 30.3612 110.082 30.3638C109.429 30.3732 109.107 30.3778 108.95 30.2191C108.797 30.0645 108.801 29.7547 108.808 29.1432C108.81 28.9582 108.813 28.7456 108.812 28.5013C108.802 26.6595 108.805 24.8177 108.809 22.9758L108.809 22.9565C108.81 22.042 108.812 21.1276 108.812 20.2131C108.812 19.8508 108.812 19.4884 108.834 19.1289C108.829 19.0154 108.869 18.9044 108.946 18.8208C109.023 18.7373 109.13 18.6882 109.243 18.6845C109.557 18.6619 109.873 18.6562 110.189 18.6562H137.278C138.669 18.6562 138.689 18.6562 138.689 20.1027V28.9316C138.689 29.2486 138.689 29.5656 138.664 29.8827C138.668 29.9975 138.626 30.1093 138.548 30.1929C138.469 30.2765 138.36 30.3249 138.246 30.3271C137.93 30.3469 137.614 30.3554 137.301 30.3582H131.733C131.372 30.3582 131.011 30.3582 130.652 30.378C130.416 30.365 130.213 30.5436 130.195 30.78C130.177 30.9142 130.166 31.0493 130.161 31.1848C130.145 31.9503 130.12 32.7161 130.095 33.4819C130.038 35.205 129.982 36.9288 130.023 38.6493C130.177 45.2595 130.149 51.8697 130.122 58.4808L130.122 58.4859C130.108 61.6968 130.095 64.908 130.102 68.1194C130.102 69.0922 130.075 70.069 130.047 71.0462C130.029 71.698 130.011 72.3513 130.001 73.0023C129.986 73.7496 129.907 73.8289 129.112 73.8317H122.622C121.132 73.8317 119.642 73.8317 118.152 73.8063C117.537 73.8063 117.444 73.7015 117.407 73.1071C117.379 72.6117 117.379 72.1107 117.379 71.6125C117.371 66.2229 117.367 60.8333 117.367 55.4437Z" fill="white"/>
<path d="M22.4136 20.4226L22.4221 73.1212C22.4475 73.7213 22.5237 73.7865 23.1727 73.8119H43.2103C43.3158 73.8119 43.4212 73.8138 43.5266 73.8157C43.7369 73.8195 43.9469 73.8232 44.1556 73.8119C44.7059 73.7893 44.8018 73.7015 44.8272 73.1892V62.594C44.8258 61.7394 44.8627 61.3426 44.6825 61.1597C44.4998 60.9743 44.094 61.0088 43.199 61.0088H35.8877C35.0412 61.006 34.9368 60.9012 34.917 60.0945C34.8832 59.0075 34.8832 57.9205 34.8832 56.8335V20.5584C34.8832 20.4226 34.885 20.2867 34.8869 20.1508C34.8907 19.8791 34.8945 19.6073 34.8832 19.3356C34.8578 18.7553 34.7618 18.6704 34.1354 18.6449H24.2506C23.2128 18.6492 22.7547 18.5884 22.5555 18.7872C22.3604 18.9818 22.4136 19.4253 22.4136 20.4226Z" fill="white"/>
<path fill-rule="evenodd" clip-rule="evenodd" d="M1.80031 92.8878C1.58927 92.8878 1.40273 92.8902 1.2379 92.8923C0.60099 92.9005 0.288074 92.9045 0.137444 92.7502C-0.00797162 92.6012 -0.00220823 92.3047 0.00911899 91.7219C0.0127405 91.5355 0.0169308 91.3199 0.0169308 91.0706C0.00564361 61.6844 0 32.2944 0 2.90068V1.13433C0 0.0586776 0.0253963 0.0247096 1.1513 0.00206417H153.642C153.783 0.00206417 153.915 0.00147137 154.037 0.000921112C154.862 -0.0027936 155.256 -0.0045677 155.441 0.191083C155.61 0.369934 155.605 0.71376 155.595 1.37189C155.592 1.5509 155.589 1.7551 155.589 1.98354V90.9687C155.589 91.2136 155.592 91.4277 155.595 91.6147C155.606 92.2517 155.611 92.5754 155.453 92.7371C155.289 92.9036 154.951 92.8992 154.266 92.8901C154.076 92.8876 153.86 92.8847 153.613 92.885L1.80031 92.8878ZM143.969 83.1022C144.417 83.1022 144.869 83.0881 145.32 83.0597C145.51 83.0568 145.664 82.9048 145.67 82.7144C145.698 82.2643 145.718 81.8114 145.718 81.3585V10.5775C145.69 10.0425 145.583 9.92358 145.089 9.89527C144.759 9.87906 144.425 9.87991 144.092 9.88075L143.87 9.88112H67.6246C67.3924 9.88112 67.1877 9.87826 67.0073 9.87573C66.3355 9.86632 66 9.86163 65.8347 10.0271C65.6697 10.1922 65.6743 10.5268 65.6836 11.1954C65.6862 11.3828 65.6891 11.5965 65.6888 11.8399V59.2509C65.6888 59.7038 65.6804 60.1567 65.6634 60.6097C65.6672 60.7239 65.6246 60.8349 65.5454 60.9171C65.4661 60.9993 65.357 61.0456 65.243 61.0456C64.9421 61.0668 64.6412 61.0684 64.3403 61.07L64.1594 61.0711H55.0873C54.8646 61.0711 54.6686 61.0738 54.4961 61.0763C53.862 61.0854 53.546 61.0899 53.3906 60.9341C53.2362 60.7794 53.2404 60.4666 53.2486 59.843C53.2507 59.6816 53.2531 59.4991 53.2531 59.2934V11.6107C53.2531 11.4513 53.2544 11.3066 53.2556 11.1751C53.2614 10.5388 53.2643 10.2125 53.1031 10.047C52.9342 9.87354 52.5851 9.87555 51.8705 9.87968C51.7512 9.88037 51.6216 9.88112 51.481 9.88112H13.951C13.3539 9.88112 12.7568 9.86431 12.1609 9.84754C11.9457 9.84148 11.7306 9.83543 11.5158 9.83017C11.0841 9.83017 10.9514 9.91792 10.9514 10.3737C10.926 11.3248 10.9119 12.273 10.9119 13.2241V79.7903C10.9119 80.2885 10.9119 80.7867 10.9289 81.2849C10.9367 81.5502 10.938 81.7771 10.9391 81.9711C10.9422 82.5198 10.9438 82.8053 11.0873 82.9525C11.2429 83.1121 11.5655 83.109 12.2379 83.1025C12.3889 83.101 12.5576 83.0994 12.7461 83.0994L143.969 83.1022Z" fill="white"/>
</g>
</svg>
